<?xml version="1.0" standalone="no"?>
<!DOCTYPE svg PUBLIC "-//W3C//DTD SVG 20010904//EN" "http://www.w3.org/TR/2001/REC-SVG-20010904/DTD/svg10.dtd">
<!-- Created using Krita: http://krita.org -->
<svg xmlns="http://www.w3.org/2000/svg" 
    xmlns:xlink="http://www.w3.org/1999/xlink"
    xmlns:krita="http://krita.org/namespaces/svg/krita"
    xmlns:sodipodi="http://sodipodi.sourceforge.net/DTD/sodipodi-0.dtd"
    width="405.36pt"
    height="244.08pt"
    viewBox="0 0 405.36 244.08">
<defs/>
<g id="#ffffffff" fill="none">
  <path id="shape0" transform="translate(37.0960025618297, 20.2342113655081)" fill="#ffffff" d="M149.474 0.595789C184.634 -1.58421 220.484 2.07579 253.774 13.9358C280.814 23.6258 307.094 38.7358 324.284 62.3058C333.044 74.5958 338.534 89.5958 337.874 104.816C337.644 119.106 332.054 132.946 323.624 144.336C309.224 163.976 288.124 177.506 266.084 187.136C239.484 198.396 210.734 204.236 181.934 205.526C146.764 207.006 111.044 202.486 78.124 189.646C53.894 180.116 30.524 165.986 14.724 144.856C4.164 130.966 -1.696 113.136 0.433997 95.6458C2.234 79.0958 10.934 64.0558 22.124 52.0458C34.284 39.3558 49.144 29.4358 64.964 21.8958C91.384 9.27579 120.384 2.84579 149.474 0.595789M145.514 5.59579C112.384 8.44579 79.274 17.1558 50.684 34.5258C36.484 43.5258 23.294 54.8358 14.534 69.3558C7.814 79.8058 4.244 92.2858 4.574 104.726C4.944 119.816 11.484 134.166 20.974 145.686C29.344 156.366 40.244 164.726 51.644 171.956C78.434 187.896 109.064 196.556 139.944 199.776C171.664 203.126 204.014 201.026 234.954 193.166C260.154 186.436 284.824 175.726 304.724 158.556C316.904 147.756 327.404 134.176 331.494 118.176C335.374 103.786 333.374 88.1058 326.694 74.8458C320.284 62.6058 311.004 51.9158 300.034 43.5358C280.234 27.7858 256.264 18.2258 231.934 11.9658C203.724 5.25579 174.404 2.98579 145.514 5.59579Z"/>
  <path id="shape1" transform="translate(85.090778592719, 73.9522390595045)" fill="#ffffff" d="M0.149221 1.02776C3.86922 -0.562239 7.97922 0.207761 11.8992 0.0577609C17.3592 0.277761 23.2592 -0.00223906 28.0692 3.03776C32.4992 5.91776 33.4392 12.1778 31.7692 16.8778C30.7292 19.8378 27.4892 20.9578 25.4392 23.0478C28.2792 24.2078 31.5792 25.0678 33.3392 27.8378C37.0092 33.2778 35.8892 41.6678 30.6292 45.7278C26.4092 48.7578 21.0592 49.7378 15.9492 49.5578C10.7092 49.3578 5.40922 49.9978 0.219221 49.0678C-0.120779 33.0578 -0.000778593 17.0378 0.149221 1.02776M9.06922 6.87776C8.87922 11.5678 8.87922 16.2778 9.10922 20.9778C13.0592 20.9278 17.6692 21.7678 20.9592 19.0478C24.1892 16.4778 23.9992 10.8478 20.7692 8.37776C17.2592 6.27776 12.9792 6.83776 9.06922 6.87776M9.07922 27.6078C8.82922 32.6478 8.90922 37.6878 9.09922 42.7278C13.6792 42.6378 18.9192 43.8578 22.9592 41.1278C26.9192 38.4078 26.7592 31.9378 22.8492 29.2678C18.7692 26.5778 13.6592 27.7478 9.07922 27.6078Z"/>
  <path id="shape2" transform="translate(167.449944858903, 78.828670751536)" fill="#ffffff" d="M13.8801 5.44133C24.9701 -1.20867 38.9801 -1.27867 51.0401 2.62133C53.6801 3.73133 57.0401 4.52133 58.5101 7.20133C59.6801 11.8913 59.2501 16.8413 58.5501 21.5713C54.6201 21.9213 51.6201 18.8813 48.1101 17.6613C41.2401 14.8013 32.6101 13.2513 26.0601 17.7213C21.4001 20.6813 20.2601 27.6913 23.5201 32.0913C26.3701 36.1713 31.0901 38.1513 35.3701 40.3413C43.2601 44.1113 51.8801 47.2113 58.1501 53.5613C65.4701 61.3413 66.4101 73.1513 63.3401 82.9913C60.7801 89.7813 55.7601 95.6713 49.1901 98.8713C37.2301 104.771 22.8801 104.851 10.3801 100.611C7.03006 99.2413 3.14006 98.0113 1.02006 94.8713C-0.359945 90.2613 -0.319945 85.1113 1.02006 80.4913C2.96006 79.1013 5.05006 80.8713 6.81006 81.7513C13.8701 86.1013 22.2101 88.6313 30.5501 87.9513C34.3201 87.5613 38.3201 86.5013 41.0001 83.6413C45.3601 79.7413 46.1601 72.1213 42.0001 67.7913C37.1501 62.3613 29.9401 60.2013 23.6001 57.0813C19.0901 54.7813 14.3901 52.6313 10.5801 49.2213C-2.17994 37.9913 -0.869945 14.3913 13.8801 5.44133Z"/>
  <path id="shape3" transform="translate(129.209936710766, 87.005833527003)" fill="#ffffff" d="M0.0800633 0.404166C2.92006 -0.135834 5.83006 -0.0658335 8.69006 0.214166C9.27006 8.16417 8.29006 16.1642 9.19006 24.0942C9.52006 27.8842 13.6801 31.2142 17.4001 29.5342C19.8701 28.2642 22.0001 26.2542 23.5201 23.9542C23.9301 16.0642 23.4901 8.14417 23.6901 0.234166C26.5301 -0.0658335 29.4001 -0.0758335 32.2301 0.264166C32.2801 12.3842 32.3901 24.5142 32.1801 36.6342C29.8501 36.7342 27.5101 36.7442 25.1801 36.6942C24.9801 34.8642 24.8301 33.0342 24.6401 31.2042C20.8101 35.1242 15.5501 38.5242 9.81006 37.3042C4.50006 36.9042 0.660063 31.9842 0.420063 26.8642C-0.319937 18.0642 0.160063 9.21417 0.0800633 0.404166Z"/>
  <path id="shape4" transform="translate(239.576238960135, 133.754052170625)" fill="#ffffff" d="M5.89376 0.335948C8.67376 -0.204052 11.5238 -0.00405217 14.3238 0.315948C14.4438 3.28595 14.4138 6.25595 14.4538 9.22595C17.3438 9.30595 20.2838 9.00595 23.1538 9.53595C23.7338 11.6959 23.4738 13.9459 23.3338 16.1559C20.3838 16.2559 17.4338 16.2259 14.4938 16.3259C14.4838 22.6959 14.1638 29.0859 14.6438 35.4459C14.7538 37.9659 17.2638 39.0059 19.1738 40.0359L18.5038 39.5359C20.1338 39.2359 21.7638 38.9259 23.4038 38.6059C23.1738 40.9359 24.4938 44.2559 22.0538 45.7859C18.5738 47.0259 14.7138 46.7859 11.2238 45.7359C7.69376 44.4759 6.09376 40.6259 5.77376 37.1559C5.22376 30.2259 5.67376 23.2759 5.52376 16.3359C3.76376 16.2759 2.01376 16.2359 0.263761 16.1959C-0.056239 13.9159 -0.156239 11.6059 0.373761 9.34595C2.09376 9.27595 3.82376 9.23595 5.55376 9.19595C5.64376 6.24595 5.21376 3.22595 5.89376 0.335948Z"/>
  <path id="shape5" transform="translate(269.369474706676, 142.258262485689)" fill="#ffffff" d="M3.81053 2.88174C10.0205 -0.268262 17.5605 -0.868262 24.1905 1.24174C28.4405 2.85174 30.8405 7.25174 30.7105 11.6917C30.7405 20.2617 30.6505 28.8417 30.7305 37.4117C28.3905 37.4917 26.0405 37.4917 23.7105 37.3417C23.6805 36.3417 23.6405 34.3417 23.6105 33.3417C19.3405 37.2417 13.4305 39.4417 7.70053 37.6317C-0.549475 36.2917 -2.74947 23.7917 3.95053 19.2517C9.35053 15.7417 16.0605 16.3917 22.1905 15.9017C22.1905 12.8517 22.3205 8.91174 19.1105 7.32174C13.4505 4.88174 7.61053 8.33174 2.33053 10.2317C2.18053 7.85174 0.890525 4.09174 3.81053 2.88174M10.3705 23.4017C7.39053 25.6617 8.47053 31.2317 12.1805 32.0417C15.9505 33.2117 19.6205 30.8917 21.8605 28.0117C22.4505 25.8217 22.0505 23.5017 22.0905 21.2617C18.1505 21.3017 13.6005 20.6517 10.3705 23.4017Z"/>
  <path id="shape6" transform="translate(311.473443712788, 142.30110931668)" fill="#ffffff" d="M0.0865563 0.948891C2.42656 0.718891 4.77656 0.688891 7.13656 0.728891C7.34656 2.74889 7.50656 4.77889 7.71656 6.80889C9.82656 4.49889 11.5566 1.50889 14.6566 0.418891C16.7766 -0.401109 19.0466 0.178891 21.2066 0.508891C21.4266 3.30889 21.4266 6.12889 21.2266 8.93889C19.2866 8.72889 17.3066 7.90889 15.3566 8.41889C12.3866 9.48889 10.6766 12.3189 8.88656 14.7289C8.87656 22.2389 8.95656 29.7489 8.83656 37.2589C5.96656 37.4289 3.03656 37.7089 0.196556 37.1189C-0.153444 25.0689 0.0665563 12.9989 0.0865563 0.948891Z"/>
 </g>
</svg>
